:SAMPLES-PER-SECOND 30
:FRAME-RANGE 1-1770
:FULLY-SPECIFIED
:DEGREES
1107
root  -3.58978 37.5072 73.3671 -174.3 34.7569 -172.16
RightUpLeg  -22.8086 -2.02131 -2.4911
RightLeg  11.7043 -1.2878 -0.591999
RightFoot  4.07178 -1.72064 12.8728
RightToes  6.35937e-011 1.2921e-014 -6.02303e-014
Spine  7.69385 -2.41117 2.66637
Spine1  1.6498 -3.52178 6.04647
HEad  -8.6638 23.9011 -9.79328
LeftShoulder1  1.45929 -0.293702 -32.3768
LeftArm  0.85728 9.49321 -37.8693
LeftForeArm  28.3774 -45.1691 -9.27457
LeftHand  -0.0949001 -3.80231 1.46112
RightShoulder  2.72119 1.76282 45.2864
RightArm  13.8952 -2.3101 6.82775
RightForeArm  2.15427 26.2731 5.53314
RightHand  -0.186529 5.06941 -2.37348
LeftUpLeg  10.1595 -9.1546 -4.45015
LeftLeg  18.4477 -6.13971 -1.93363
LeftFoot  -21.4669 1.29779 13.1236
LeftToes  3.18074e-010 1.39432e-010 -7.71186e-011
1108
root  -2.45386 37.2371 72.5254 -175.065 34.3078 -172.023
RightUpLeg  -23.7786 1.30769 -2.66261
RightLeg  19.5615 -3.94317 -1.76767
RightFoot  0.924759 -1.5444 14.3626
RightToes  6.35937e-011 1.2921e-014 -6.02303e-014
Spine  8.03132 -2.21142 5.53282
Spine1  1.39408 -2.58238 3.86669
HEad  -7.38335 23.6645 -10.3888
LeftShoulder1  1.36654 -0.087177 -32.0011
LeftArm  -3.15346 7.54388 -34.56
LeftForeArm  26.7371 -46.8797 -10.0297
LeftHand  -0.198343 -3.29781 2.89495
RightShoulder  3.10566 2.72881 43.5737
RightArm  9.43744 -0.551358 5.91689
RightForeArm  5.61827 28.8833 5.96044
RightHand  -0.1473 5.03808 -1.94265
LeftUpLeg  10.4294 -7.93066 -3.49524
LeftLeg  24.1529 -6.44312 -2.81934
LeftFoot  -21.9069 1.07151 10.1311
LeftToes  3.18074e-010 1.39432e-010 -7.71186e-011
1109
root  -1.43626 37.014 71.6733 -175.558 33.3065 -171.754
RightUpLeg  -23.8004 0.831876 -1.94862
RightLeg  25.4449 -3.19324 -1.88277
RightFoot  -3.46355 -1.02479 14.4672
RightToes  6.35937e-011 1.2921e-014 -6.02303e-014
Spine  8.18413 -2.27285 8.59564
Spine1  1.69991 -1.96137 2.22003
HEad  -6.9063 23.171 -11.5511
LeftShoulder1  1.30559 0.0424152 -31.6625
LeftArm  -8.08519 4.82375 -31.6231
LeftForeArm  25.0003 -48.1927 -10.6833
LeftHand  -0.237951 -2.4157 3.74535
RightShoulder  3.83351 4.5986 41.2
RightArm  5.25186 1.43911 5.29714
RightForeArm  7.99917 30.7058 6.27427
RightHand  -0.122023 4.98302 -1.66715
LeftUpLeg  7.64816 -3.95869 -0.959557
LeftLeg  34.3014 -7.04424 -4.79221
LeftFoot  -19.2251 0.373939 3.74899
LeftToes  3.18074e-010 1.39432e-010 -7.71186e-011
1110
root  -0.539476 36.9314 70.9298 -175.359 30.7414 -171.579
RightUpLeg  -23.3629 -1.10929 -1.17894
RightLeg  28.8444 -3.27368 -2.19419
RightFoot  -7.03309 -0.573618 13.9081
RightToes  6.35937e-011 1.2921e-014 -6.02303e-014
Spine  7.85975 -2.41978 10.5841
Spine1  2.05293 -1.85767 2.58949
HEad  -6.32204 21.8403 -12.2378
LeftShoulder1  1.31017 -0.0303698 -31.0131
LeftArm  -12.5299 0.874714 -29.6907
LeftForeArm  23.8933 -48.61 -10.9415
LeftHand  -0.276472 -1.84131 4.61699
RightShoulder  4.41081 6.38479 38.6098
RightArm  1.30087 3.81169 4.67039
RightForeArm  9.73639 31.8993 6.47641
RightHand  -0.114937 5.01542 -1.58493
LeftUpLeg  1.1919 0.371063 2.53649
LeftLeg  46.5375 -6.54543 -6.94223
LeftFoot  -9.33076 0.138562 -4.70819
LeftToes  3.18074e-010 1.39432e-010 -7.71186e-011
1111
root  0.225486 36.8163 70.2942 -175.172 28.4547 -171.316
RightUpLeg  -22.8566 -3.03154 -0.398238
RightLeg  31.55 -3.14928 -2.34359
RightFoot  -10.081 -0.222166 13.8785
RightToes  6.35937e-011 1.2921e-014 -6.02303e-014
Spine  8.13742 -2.22242 12.7848
Spine1  2.01248 -1.22674 2.59083
HEad  -6.07633 19.8829 -12.372
LeftShoulder1  1.36069 -0.26153 -30.0723
LeftArm  -15.9626 -4.47034 -28.2193
LeftForeArm  24.3054 -48.3348 -10.7949
LeftHand  -0.319816 -1.64243 5.44922
RightShoulder  4.98947 8.32538 36.2457
RightArm  -3.25103 5.92717 4.00028
RightForeArm  11.5726 33.0906 6.6777
RightHand  -0.137461 4.98214 -1.83982
LeftUpLeg  -6.64354 3.45138 4.92575
LeftLeg  57.9172 -4.25934 -6.78572
LeftFoot  4.60871 0.995809 -7.30216
LeftToes  3.18074e-010 1.39432e-010 -7.71186e-011
1112
root  0.934948 36.7448 69.6096 -175.202 26.8976 -171.144
RightUpLeg  -21.806 -4.45132 0.175085
RightLeg  33.4306 -2.9352 -2.35821
RightFoot  -12.7309 0.0836379 13.9939
RightToes  6.35937e-011 1.2921e-014 -6.02303e-014
Spine  8.77366 -1.97123 15.1013
Spine1  1.52638 -0.400236 1.86204
HEad  -5.72958 18.3378 -12.1283
LeftShoulder1  1.38937 -0.433208 -29.2136
LeftArm  -18.5027 -9.98005 -26.4409
LeftForeArm  24.9981 -47.8086 -10.5264
LeftHand  -0.381816 -1.37647 6.7083
RightShoulder  5.62988 10.482 34.3344
RightArm  -7.36437 8.54733 3.34258
RightForeArm  13.4145 34.0978 6.83522
RightHand  -0.180751 4.94157 -2.33043
LeftUpLeg  -13.4952 7.42624 6.25777
LeftLeg  65.9796 -1.194 -2.26295
LeftFoot  10.6057 1.4058 -7.57794
LeftToes  3.18074e-010 1.39432e-010 -7.71186e-011
